<mxfile>
    <diagram id="778gtKRfv83UGZy7Tk4g" name="第 1 页">
        <mxGraphModel dx="2351" dy="2319" grid="1" gridSize="10" guides="1" tooltips="1" connect="1" arrows="1" fold="1" page="1" pageScale="1" pageWidth="827" pageHeight="1169" math="0" shadow="0">
            <root>
                <mxCell id="0"/>
                <mxCell id="1" parent="0"/>
                <mxCell id="101" value="" style="rounded=0;whiteSpace=wrap;html=1;fontSize=25;fillColor=none;" parent="1" vertex="1">
                    <mxGeometry x="-570" y="-380" width="1280" height="1770" as="geometry"/>
                </mxCell>
                <mxCell id="102" style="edgeStyle=orthogonalEdgeStyle;rounded=0;orthogonalLoop=1;jettySize=auto;html=1;exitX=0.5;exitY=1;exitDx=0;exitDy=0;entryX=0.5;entryY=0;entryDx=0;entryDy=0;fontSize=68;" parent="1" source="68" target="101" edge="1">
                    <mxGeometry relative="1" as="geometry"/>
                </mxCell>
                <mxCell id="68" value="&lt;font style=&quot;font-size: 30px&quot;&gt;Javascript 通过 【wdu-组件class类名】获取到元素&lt;/font&gt;" style="whiteSpace=wrap;html=1;fillColor=#f5f5f5;strokeColor=#666666;fontColor=#333333;" parent="1" vertex="1">
                    <mxGeometry x="-365" y="-690" width="870" height="130" as="geometry"/>
                </mxCell>
                <mxCell id="69" value="" style="shape=flexArrow;endArrow=classic;html=1;width=45;endSize=48.2;endWidth=86;" parent="1" edge="1">
                    <mxGeometry width="50" height="50" relative="1" as="geometry">
                        <mxPoint x="68.33000000000001" y="1390" as="sourcePoint"/>
                        <mxPoint x="68.33" y="1730" as="targetPoint"/>
                    </mxGeometry>
                </mxCell>
                <mxCell id="71" value="&lt;span style=&quot;font-size: 31px;&quot;&gt;&lt;font style=&quot;font-size: 31px;&quot;&gt;&lt;b style=&quot;font-size: 31px;&quot;&gt;Wood-UI 元素&lt;/b&gt;&lt;/font&gt;&lt;/span&gt;" style="ellipse;whiteSpace=wrap;html=1;aspect=fixed;fillColor=#e51400;strokeColor=#B20000;fontColor=#ffffff;fontSize=31;" parent="1" vertex="1">
                    <mxGeometry x="-45" y="1754" width="226" height="226" as="geometry"/>
                </mxCell>
                <mxCell id="93" value="" style="group;strokeColor=#666666;fontColor=#333333;" parent="1" vertex="1" connectable="0">
                    <mxGeometry x="-450" y="740" width="1040" height="560" as="geometry"/>
                </mxCell>
                <mxCell id="16" value="" style="whiteSpace=wrap;html=1;strokeColor=#666666;fontColor=#333333;fillColor=#f5f5f5;" parent="93" vertex="1">
                    <mxGeometry width="1040" height="560" as="geometry"/>
                </mxCell>
                <mxCell id="18" value="&lt;span style=&quot;font-size: 24px&quot;&gt;样式&lt;/span&gt;" style="text;html=1;strokeColor=none;fillColor=none;align=center;verticalAlign=middle;whiteSpace=wrap;" parent="93" vertex="1">
                    <mxGeometry x="480" width="120" height="40" as="geometry"/>
                </mxCell>
                <mxCell id="25" value="" style="whiteSpace=wrap;html=1;" parent="93" vertex="1">
                    <mxGeometry x="105" y="20" width="340" height="510" as="geometry"/>
                </mxCell>
                <mxCell id="26" value="&lt;span style=&quot;font-size: 18px&quot;&gt;animate.less&amp;nbsp; 动画模块&lt;/span&gt;" style="whiteSpace=wrap;html=1;align=center;verticalAlign=middle;" parent="93" vertex="1">
                    <mxGeometry x="130" y="110" width="290" height="40" as="geometry"/>
                </mxCell>
                <mxCell id="27" value="&lt;span style=&quot;font-size: 18px&quot;&gt;shadow.less&amp;nbsp; 阴影模块&lt;/span&gt;" style="whiteSpace=wrap;html=1;align=center;verticalAlign=middle;" parent="93" vertex="1">
                    <mxGeometry x="130" y="160" width="290" height="40" as="geometry"/>
                </mxCell>
                <mxCell id="28" value="&lt;span style=&quot;font-size: 18px&quot;&gt;color.less&amp;nbsp; 颜色模块&lt;/span&gt;" style="whiteSpace=wrap;html=1;align=center;verticalAlign=middle;" parent="93" vertex="1">
                    <mxGeometry x="130" y="210" width="290" height="40" as="geometry"/>
                </mxCell>
                <mxCell id="29" value="&lt;span style=&quot;font-size: 18px&quot;&gt;font.less 字体模块&lt;/span&gt;" style="whiteSpace=wrap;html=1;align=center;verticalAlign=middle;" parent="93" vertex="1">
                    <mxGeometry x="130" y="260" width="290" height="40" as="geometry"/>
                </mxCell>
                <mxCell id="30" value="&lt;span style=&quot;font-size: 18px&quot;&gt;layout.less&amp;nbsp; 布局模块&lt;/span&gt;" style="whiteSpace=wrap;html=1;align=center;verticalAlign=middle;" parent="93" vertex="1">
                    <mxGeometry x="130" y="310" width="290" height="40" as="geometry"/>
                </mxCell>
                <mxCell id="31" value="&lt;span style=&quot;font-size: 18px&quot;&gt;border.less&amp;nbsp; 边框模块&lt;/span&gt;" style="whiteSpace=wrap;html=1;align=center;verticalAlign=middle;" parent="93" vertex="1">
                    <mxGeometry x="130" y="360" width="290" height="40" as="geometry"/>
                </mxCell>
                <mxCell id="32" value="&lt;font style=&quot;font-size: 18px&quot;&gt;&lt;b&gt;公共样式&lt;/b&gt;&lt;/font&gt;" style="text;html=1;strokeColor=none;fillColor=none;align=center;verticalAlign=middle;whiteSpace=wrap;" parent="93" vertex="1">
                    <mxGeometry x="230" y="22" width="90" height="40" as="geometry"/>
                </mxCell>
                <mxCell id="34" style="edgeStyle=orthogonalEdgeStyle;orthogonalLoop=1;jettySize=auto;html=1;exitX=0;exitY=0.5;exitDx=0;exitDy=0;entryX=1;entryY=0.5;entryDx=0;entryDy=0;" parent="93" source="33" target="25" edge="1">
                    <mxGeometry relative="1" as="geometry"/>
                </mxCell>
                <mxCell id="36" value="&lt;font style=&quot;font-size: 16px&quot;&gt;extend&lt;/font&gt;" style="edgeLabel;html=1;align=center;verticalAlign=middle;resizable=0;points=[];" parent="34" vertex="1" connectable="0">
                    <mxGeometry x="-0.195" y="1" relative="1" as="geometry">
                        <mxPoint as="offset"/>
                    </mxGeometry>
                </mxCell>
                <mxCell id="33" value="" style="whiteSpace=wrap;html=1;" parent="93" vertex="1">
                    <mxGeometry x="665" y="180" width="270" height="185" as="geometry"/>
                </mxCell>
                <mxCell id="35" value="&lt;font style=&quot;font-size: 18px&quot;&gt;&lt;b&gt;组件样式&lt;/b&gt;&lt;/font&gt;" style="text;html=1;strokeColor=none;fillColor=none;align=center;verticalAlign=middle;whiteSpace=wrap;" parent="93" vertex="1">
                    <mxGeometry x="755" y="180" width="90" height="40" as="geometry"/>
                </mxCell>
                <mxCell id="37" value="&lt;h1&gt;@import 'main.less'&lt;/h1&gt;" style="text;html=1;strokeColor=none;fillColor=none;spacing=5;spacingTop=-20;whiteSpace=wrap;overflow=hidden;" parent="93" vertex="1">
                    <mxGeometry x="687" y="245" width="240" height="55" as="geometry"/>
                </mxCell>
                <mxCell id="38" value="&lt;font style=&quot;font-size: 16px&quot;&gt;main.less&lt;/font&gt;" style="whiteSpace=wrap;html=1;fillColor=#d5e8d4;strokeColor=#82b366;" parent="93" vertex="1">
                    <mxGeometry x="215" y="440" width="120" height="60" as="geometry"/>
                </mxCell>
                <mxCell id="39" style="edgeStyle=orthogonalEdgeStyle;orthogonalLoop=1;jettySize=auto;html=1;exitX=0.5;exitY=1;exitDx=0;exitDy=0;entryX=0.5;entryY=0;entryDx=0;entryDy=0;" parent="93" source="31" target="38" edge="1">
                    <mxGeometry relative="1" as="geometry"/>
                </mxCell>
                <mxCell id="103" value="&lt;span style=&quot;font-size: 18px&quot;&gt;grid.less&amp;nbsp; 格栅模块&lt;/span&gt;" style="whiteSpace=wrap;html=1;align=center;verticalAlign=middle;" parent="93" vertex="1">
                    <mxGeometry x="130" y="62" width="290" height="40" as="geometry"/>
                </mxCell>
                <mxCell id="98" value="" style="group;fillColor=#f5f5f5;strokeColor=#666666;fontColor=#333333;" parent="1" vertex="1" connectable="0">
                    <mxGeometry x="-170" y="-270" width="480" height="380" as="geometry"/>
                </mxCell>
                <mxCell id="63" value="" style="whiteSpace=wrap;html=1;fillColor=#f5f5f5;strokeColor=#666666;fontColor=#333333;" parent="98" vertex="1">
                    <mxGeometry width="480" height="380" as="geometry"/>
                </mxCell>
                <mxCell id="64" value="&lt;font style=&quot;font-size: 24px;&quot;&gt;初始化组件结构&lt;/font&gt;" style="whiteSpace=wrap;html=1;fontSize=24;" parent="98" vertex="1">
                    <mxGeometry x="30.000769230769265" y="70" width="180" height="60" as="geometry"/>
                </mxCell>
                <mxCell id="74" value="&lt;font style=&quot;font-size: 24px;&quot;&gt;生成组件结构&lt;/font&gt;" style="whiteSpace=wrap;html=1;fontSize=24;" parent="98" vertex="1">
                    <mxGeometry x="263.0730769230769" y="70" width="180" height="60" as="geometry"/>
                </mxCell>
                <mxCell id="75" value="&lt;font style=&quot;font-size: 24px;&quot;&gt;添加事件监听&lt;/font&gt;" style="whiteSpace=wrap;html=1;fontSize=24;" parent="98" vertex="1">
                    <mxGeometry x="30.000769230769265" y="180" width="180" height="60" as="geometry"/>
                </mxCell>
                <mxCell id="76" value="&lt;font style=&quot;font-size: 24px;&quot;&gt;添加销毁机制&lt;/font&gt;" style="whiteSpace=wrap;html=1;fontSize=24;" parent="98" vertex="1">
                    <mxGeometry x="30" y="270" width="410" height="60" as="geometry"/>
                </mxCell>
                <mxCell id="77" value="&lt;span style=&quot;font-size: 24px;&quot;&gt;添加运行时方法&lt;/span&gt;" style="whiteSpace=wrap;html=1;fontSize=24;" parent="98" vertex="1">
                    <mxGeometry x="263.0730769230769" y="180" width="180" height="60" as="geometry"/>
                </mxCell>
                <mxCell id="65" value="&lt;font style=&quot;font-size: 24px&quot;&gt;行为&lt;/font&gt;" style="text;html=1;strokeColor=none;fillColor=none;align=center;verticalAlign=middle;whiteSpace=wrap;" parent="98" vertex="1">
                    <mxGeometry x="198.4576923076924" width="83.07692307692308" height="40" as="geometry"/>
                </mxCell>
                <mxCell id="97" value="" style="group" parent="1" vertex="1" connectable="0">
                    <mxGeometry x="-345" y="236" width="830" height="380.0035294117647" as="geometry"/>
                </mxCell>
                <mxCell id="2" value="" style="whiteSpace=wrap;html=1;fillColor=#f5f5f5;strokeColor=#666666;fontColor=#333333;" parent="97" vertex="1">
                    <mxGeometry y="0.003529411764706225" width="830" height="380" as="geometry"/>
                </mxCell>
                <mxCell id="12" value="&lt;font style=&quot;font-size: 25px;&quot;&gt;data-option&lt;/font&gt;" style="whiteSpace=wrap;html=1;fontSize=25;" parent="97" vertex="1">
                    <mxGeometry x="45" y="226.7635294117647" width="120" height="72.94" as="geometry"/>
                </mxCell>
                <mxCell id="13" value="&lt;font style=&quot;font-size: 24px&quot;&gt;结构&lt;/font&gt;" style="text;html=1;strokeColor=none;fillColor=none;align=center;verticalAlign=middle;whiteSpace=wrap;" parent="97" vertex="1">
                    <mxGeometry x="340" width="120" height="44.705882352941174" as="geometry"/>
                </mxCell>
                <mxCell id="15" value="&lt;div style=&quot;font-size: 25px&quot;&gt;&lt;font style=&quot;font-size: 25px&quot;&gt;&amp;lt;div&lt;/font&gt;&lt;/div&gt;&lt;div style=&quot;font-size: 25px&quot;&gt;&lt;font style=&quot;font-size: 25px&quot;&gt;&amp;nbsp; &amp;nbsp; &amp;nbsp; &amp;nbsp; class=&quot;wdu-button&quot;&lt;/font&gt;&lt;/div&gt;&lt;div style=&quot;font-size: 25px&quot;&gt;&lt;font style=&quot;font-size: 25px&quot;&gt;&amp;nbsp; &amp;nbsp; &amp;nbsp; &amp;nbsp; data-option='{&quot;type&quot;:&quot;danger&quot;,&quot;size&quot;:&quot;large&quot;}'&lt;/font&gt;&lt;/div&gt;&lt;div style=&quot;font-size: 25px&quot;&gt;&lt;font style=&quot;font-size: 25px&quot;&gt;&amp;gt;&lt;/font&gt;&lt;/div&gt;" style="text;html=1;align=left;verticalAlign=middle;whiteSpace=wrap;strokeColor=#000000;fontSize=25;" parent="97" vertex="1">
                    <mxGeometry x="345" y="180" width="436.5" height="166.47" as="geometry"/>
                </mxCell>
                <mxCell id="80" style="edgeStyle=orthogonalEdgeStyle;orthogonalLoop=1;jettySize=auto;html=1;exitX=1;exitY=0.5;exitDx=0;exitDy=0;fontSize=25;" parent="97" source="12" target="15" edge="1">
                    <mxGeometry relative="1" as="geometry"/>
                </mxCell>
                <mxCell id="81" value="&lt;font style=&quot;font-size: 16px&quot;&gt;传入组件配置项&lt;/font&gt;" style="edgeLabel;html=1;align=center;verticalAlign=middle;resizable=0;points=[];" parent="80" vertex="1" connectable="0">
                    <mxGeometry x="0.2779" y="1" relative="1" as="geometry">
                        <mxPoint x="-36" y="1" as="offset"/>
                    </mxGeometry>
                </mxCell>
                <mxCell id="82" value="&lt;font style=&quot;font-size: 25px;&quot;&gt;class&lt;/font&gt;" style="whiteSpace=wrap;html=1;fontSize=25;" parent="97" vertex="1">
                    <mxGeometry x="97" y="89.41529411764705" width="120" height="44.705882352941174" as="geometry"/>
                </mxCell>
                <mxCell id="87" value="&lt;font style=&quot;font-size: 25px;&quot;&gt;wdu-&lt;/font&gt;" style="whiteSpace=wrap;html=1;fontSize=25;" parent="97" vertex="1">
                    <mxGeometry x="324.5" y="78.23882352941176" width="112.5" height="67.05882352941177" as="geometry"/>
                </mxCell>
                <mxCell id="91" style="edgeStyle=orthogonalEdgeStyle;orthogonalLoop=1;jettySize=auto;html=1;exitX=1;exitY=0.5;exitDx=0;exitDy=0;" parent="97" source="82" target="87" edge="1">
                    <mxGeometry relative="1" as="geometry"/>
                </mxCell>
                <mxCell id="88" value="" style="shape=cross;whiteSpace=wrap;html=1;fillColor=#141414;" parent="97" vertex="1">
                    <mxGeometry x="454.5" y="97.79764705882353" width="25" height="27.941176470588236" as="geometry"/>
                </mxCell>
                <mxCell id="90" value="&lt;span style=&quot;font-size: 25px;&quot;&gt;组件标识&lt;/span&gt;" style="whiteSpace=wrap;html=1;fontSize=25;" parent="97" vertex="1">
                    <mxGeometry x="497" y="78.23882352941176" width="112.5" height="67.05882352941177" as="geometry"/>
                </mxCell>
                <mxCell id="107" style="edgeStyle=orthogonalEdgeStyle;rounded=0;orthogonalLoop=1;jettySize=auto;html=1;exitX=0.5;exitY=1;exitDx=0;exitDy=0;fontSize=68;" parent="1" source="105" target="68" edge="1">
                    <mxGeometry relative="1" as="geometry"/>
                </mxCell>
                <mxCell id="105" value="&#10;&#10;&lt;span style=&quot;font-family: helvetica; font-size: 30px; font-style: normal; font-weight: 400; letter-spacing: normal; text-align: center; text-indent: 0px; text-transform: none; word-spacing: 0px; display: inline; float: none;&quot;&gt;原始HTML 标签元素&lt;/span&gt;&#10;&#10;" style="ellipse;whiteSpace=wrap;html=1;aspect=fixed;rounded=0;fontSize=68;align=center;strokeColor=#2D7600;fillColor=#60a917;labelBackgroundColor=none;" parent="1" vertex="1">
                    <mxGeometry x="-45" y="-1020" width="230" height="230" as="geometry"/>
                </mxCell>
                <mxCell id="106" style="edgeStyle=orthogonalEdgeStyle;rounded=0;orthogonalLoop=1;jettySize=auto;html=1;exitX=0.5;exitY=1;exitDx=0;exitDy=0;fontSize=68;" parent="1" source="105" target="105" edge="1">
                    <mxGeometry relative="1" as="geometry"/>
                </mxCell>
            </root>
        </mxGraphModel>
    </diagram>
</mxfile>